<?xml version="1.0" encoding="UTF-8" standalone="no"?>
<!DOCTYPE svg PUBLIC "-//W3C//DTD SVG 1.1//EN" "http://www.w3.org/Graphics/SVG/1.1/DTD/svg11.dtd">
<svg width="100%" height="100%" viewBox="0 0 179 108" version="1.1" xmlns="http://www.w3.org/2000/svg" xmlns:xlink="http://www.w3.org/1999/xlink" xml:space="preserve" xmlns:serif="http://www.serif.com/" style="fill-rule:evenodd;clip-rule:evenodd;stroke-linejoin:round;stroke-miterlimit:2;">
    <g transform="matrix(1,0,0,1,-210.511,-96.3382)">
        <g transform="matrix(1,0,0,1,-23.3386,-649.816)">
            <g transform="matrix(0.221288,0,0,0.24,73.9536,390.254)">
                <path d="M722.568,1482.92L722.568,1921.1L808.968,1921.1L808.968,1888.7C822.168,1907.9 846.168,1930.1 893.568,1930.1C933.168,1930.1 961.968,1917.5 985.368,1893.5C1012.97,1865.9 1027.37,1827.5 1027.37,1786.1C1027.37,1741.7 1011.17,1705.1 985.368,1680.5C961.968,1658.3 928.968,1644.5 892.368,1644.5C862.968,1644.5 830.568,1654.1 808.968,1683.5L808.968,1482.92L722.568,1482.92ZM871.368,1718.9C888.768,1718.9 903.768,1723.7 917.568,1736.9C930.168,1748.9 938.568,1766.3 938.568,1787.9C938.568,1807.7 930.168,1825.1 917.568,1837.1C904.368,1849.7 887.568,1855.7 872.568,1855.7C856.368,1855.7 837.168,1849.1 823.368,1835.9C813.168,1826.3 803.568,1810.1 803.568,1787.9C803.568,1765.1 812.568,1749.5 822.768,1738.7C836.568,1724.3 852.768,1718.9 871.368,1718.9Z" style="fill:rgb(35,146,255);fill-rule:nonzero;"/>
                <rect x="1083.77" y="1482.92" width="86.4" height="438.182" style="fill:rgb(250,144,82);fill-rule:nonzero;"/>
                <path d="M1531.37,1482.92L1444.97,1482.92L1444.97,1683.5C1423.37,1654.1 1390.97,1644.5 1361.57,1644.5C1324.97,1644.5 1291.97,1658.3 1268.57,1680.5C1242.77,1705.1 1226.57,1741.7 1226.57,1786.1C1226.57,1827.5 1240.97,1865.9 1268.57,1893.5C1291.97,1917.5 1320.77,1930.1 1360.37,1930.1C1407.77,1930.1 1431.77,1907.9 1444.97,1888.7L1444.97,1921.1L1531.37,1921.1L1531.37,1482.92ZM1382.57,1718.9C1401.17,1718.9 1417.37,1724.3 1431.17,1738.7C1441.37,1749.5 1450.37,1765.1 1450.37,1787.9C1450.37,1810.1 1440.77,1826.3 1430.57,1835.9C1416.77,1849.1 1397.57,1855.7 1381.37,1855.7C1366.37,1855.7 1349.57,1849.7 1336.37,1837.1C1323.77,1825.1 1315.37,1807.7 1315.37,1787.9C1315.37,1766.3 1323.77,1748.9 1336.37,1736.9C1350.17,1723.7 1365.17,1718.9 1382.57,1718.9Z" style="fill:rgb(35,146,255);fill-rule:nonzero;"/>
            </g>
        </g>
    </g>
</svg>
